<?xml version="1.0" encoding="UTF-8" standalone="no" ?>
<!DOCTYPE svg PUBLIC "-//W3C//DTD SVG 1.1//EN" "http://www.w3.org/Graphics/SVG/1.1/DTD/svg11.dtd">
<svg xmlns="http://www.w3.org/2000/svg" xmlns:xlink="http://www.w3.org/1999/xlink" version="1.1" width="154.42359375" height="55.74000000000001" xml:space="preserve">
<desc>Created with Fabric.js 1.6.0-rc.1</desc>
<defs></defs>
<g style="stroke: none; stroke-width: 1; stroke-dasharray: none; stroke-linecap: butt; stroke-linejoin: miter; stroke-miterlimit: 10; fill: none; fill-rule: nonzero; opacity: 1;" transform="translate(10 14.960000000000012) rotate(337.88) scale(0.09 0.06)" >
  <rect x="210.85" y="395.4" rx="0" ry="0" width="114.04" height="116.6" style="stroke: none; stroke-width: 1; stroke-dasharray: none; stroke-linecap: butt; stroke-linejoin: miter; stroke-miterlimit: 10; fill: #5c5959; fill-rule: nonzero; opacity: 1;" transform=" matrix(1 0 0 1 0 0) "/>
  <rect x="304.29" y="395.4" rx="0" ry="0" width="20.61" height="116.6" style="stroke: none; stroke-width: 1; stroke-dasharray: none; stroke-linecap: butt; stroke-linejoin: miter; stroke-miterlimit: 10; fill: #292319; fill-rule: nonzero; opacity: 1;" transform=" matrix(1 0 0 1 0 0) "/>
  <path d="M 358 37.788 v 220.245 c 0 33.089 -27.973 60.162 -62.162 60.162 h -44.984 c -40.656 0 -96.854 -31.578 -96.854 -70.927 V 212.17 c 0 -13.88 8.268 -26.52 21.226 -32.475 l 1.704 -0.775 v -42.999 c 0 -0.476 0.023 -0.952 0.08 -1.417 V 21.699 c 0 -11.183 8.738 -20.83 20.261 -21.642 c 6.648 -0.468 12.746 1.981 17.055 6.163 c 3.968 3.83 6.427 9.12 6.427 14.942 v 95.797 c 0 -7.316 6.187 -13.304 13.746 -13.304 h 19.179 c 7.559 0 13.746 5.988 13.746 13.304 c 0 -7.316 6.198 -13.304 13.758 -13.304 h 19.179 c 7.559 0 13.746 5.988 13.746 13.304 l 0.149 -79.172 c 0 -11.644 9.835 -21.174 21.866 -21.174 c 6.015 0 11.482 2.38 15.45 6.221 C 355.541 26.676 358 31.966 358 37.788 z" style="stroke: none; stroke-width: 1; stroke-dasharray: none; stroke-linecap: butt; stroke-linejoin: miter; stroke-miterlimit: 10; fill: #5c5959; fill-rule: nonzero; opacity: 1;" transform=" matrix(1 0 0 1 0 0) " stroke-linecap="round" />
  <path d="M 351.573 22.835 c -3.968 -3.841 -9.435 -6.221 -15.45 -6.221 c -3.72 0 -7.227 0.915 -10.301 2.518 c 1.897 0.989 3.632 2.237 5.145 3.702 c 3.968 3.841 6.427 9.132 6.427 14.953 v 220.245 c 0 33.089 -27.973 60.162 -62.162 60.162 h 20.606 c 34.189 0 62.162 -27.073 62.162 -60.162 V 37.788 C 358 31.967 355.541 26.676 351.573 22.835 z" style="stroke: none; stroke-width: 1; stroke-dasharray: none; stroke-linecap: butt; stroke-linejoin: miter; stroke-miterlimit: 10; fill: #292319; fill-rule: nonzero; opacity: 1;" transform=" matrix(1 0 0 1 0 0) " stroke-linecap="round" />
  <path d="M 193.72 6.221 c 3.968 3.829 6.427 9.12 6.427 14.942 v 76.704 c 0 21.033 20.606 19.573 20.606 19.573 V 21.164 c 0 -5.822 -2.459 -11.113 -6.427 -14.942 c -4.309 -4.182 -10.407 -6.632 -17.055 -6.163 c -3.129 0.221 -6.042 1.11 -8.641 2.488 C 190.507 3.531 192.224 4.769 193.72 6.221 z" style="stroke: none; stroke-width: 1; stroke-dasharray: none; stroke-linecap: butt; stroke-linejoin: miter; stroke-miterlimit: 10; fill: #292319; fill-rule: nonzero; opacity: 1;" transform=" matrix(1 0 0 1 0 0) " stroke-linecap="round" />
  <path d="M 333.641 343.6 H 202.104 c -4.859 0 -8.834 -3.975 -8.834 -8.834 v -17.084 c 0 -4.859 3.975 -8.834 8.834 -8.834 h 131.538 c 4.859 0 8.834 3.975 8.834 8.834 v 17.084 C 342.475 339.625 338.5 343.6 333.641 343.6 z" style="stroke: none; stroke-width: 1; stroke-dasharray: none; stroke-linecap: butt; stroke-linejoin: miter; stroke-miterlimit: 10; fill: #8151db; fill-rule: nonzero; opacity: 1;" transform=" matrix(1 0 0 1 0 0) " stroke-linecap="round" />
  <path d="M 333.641 378.353 H 202.104 c -4.859 0 -8.834 -3.975 -8.834 -8.834 v -17.084 c 0 -4.859 3.975 -8.834 8.834 -8.834 h 131.538 c 4.859 0 8.834 3.975 8.834 8.834 v 17.084 C 342.475 374.377 338.5 378.353 333.641 378.353 z" style="stroke: none; stroke-width: 1; stroke-dasharray: none; stroke-linecap: butt; stroke-linejoin: miter; stroke-miterlimit: 10; fill: #c9f2f4; fill-rule: nonzero; opacity: 1;" transform=" matrix(1 0 0 1 0 0) " stroke-linecap="round" />
  <path d="M 333.641 412.779 H 202.104 c -4.859 0 -8.834 -3.975 -8.834 -8.834 v -17.084 c 0 -4.859 3.975 -8.834 8.834 -8.834 h 131.538 c 4.859 0 8.834 3.975 8.834 8.834 v 17.084 C 342.475 408.804 338.5 412.779 333.641 412.779 z" style="stroke: none; stroke-width: 1; stroke-dasharray: none; stroke-linecap: butt; stroke-linejoin: miter; stroke-miterlimit: 10; fill: #5AE09F; fill-rule: nonzero; opacity: 1;" transform=" matrix(1 0 0 1 0 0) " stroke-linecap="round" />
  <path d="M 333.641 378.027 h -20.606 c 4.859 0 8.835 3.975 8.835 8.833 v 17.086 c 0 4.858 -3.976 8.833 -8.835 8.833 h 20.606 c 4.859 0 8.835 -3.975 8.835 -8.833 V 386.86 C 342.475 382.002 338.5 378.027 333.641 378.027 z" style="stroke: none; stroke-width: 1; stroke-dasharray: none; stroke-linecap: butt; stroke-linejoin: miter; stroke-miterlimit: 10; fill: #42BD81; fill-rule: nonzero; opacity: 1;" transform=" matrix(1 0 0 1 0 0) " stroke-linecap="round" />
  <path d="M 333.641 343.6 h -20.606 c 4.859 0 8.835 3.975 8.835 8.833 v 17.086 c 0 4.858 -3.976 8.833 -8.835 8.833 h 20.606 c 4.859 0 8.835 -3.975 8.835 -8.833 v -17.086 C 342.475 347.576 338.5 343.6 333.641 343.6 z" style="stroke: none; stroke-width: 1; stroke-dasharray: none; stroke-linecap: butt; stroke-linejoin: miter; stroke-miterlimit: 10; fill: #2498BF; fill-rule: nonzero; opacity: 1;" transform=" matrix(1 0 0 1 0 0) " stroke-linecap="round" />
  <path d="M 333.641 308.848 h -20.606 c 4.859 0 8.835 3.975 8.835 8.833 v 17.086 c 0 4.858 -3.976 8.833 -8.835 8.833 h 20.606 c 4.859 0 8.835 -3.975 8.835 -8.833 v -17.086 C 342.475 312.823 338.5 308.848 333.641 308.848 z" style="stroke: none; stroke-width: 1; stroke-dasharray: none; stroke-linecap: butt; stroke-linejoin: miter; stroke-miterlimit: 10; fill: #A63F70; fill-rule: nonzero; opacity: 1;" transform=" matrix(1 0 0 1 0 0) " stroke-linecap="round" />
</g>
  <g transform="translate(97.46 24.16) scale(0.5 0.53)">
   <text font-family="Amerika Sans" font-size="40" font-weight="normal" style="stroke: none; stroke-width: 1; stroke-dasharray: none; stroke-linecap: butt; stroke-linejoin: miter; stroke-miterlimit: 10; fill: #000000; fill-rule: nonzero; opacity: 1;" ><tspan x="-94.43" y="8.98" style="stroke: none; stroke-width: 0; stroke-dasharray: none; stroke-linecap: butt; stroke-linejoin: miter; stroke-miterlimit: 4; fill: #000000; fill-rule: ; opacity: 1;">E</tspan><tspan x="-70" y="8.98" style="stroke: none; stroke-width: 0; stroke-dasharray: none; stroke-linecap: butt; stroke-linejoin: miter; stroke-miterlimit: 4; fill: #000000; fill-rule: ; opacity: 1;">C</tspan><tspan x="-43.32" y="8.98" style="stroke: none; stroke-width: 0; stroke-dasharray: none; stroke-linecap: butt; stroke-linejoin: miter; stroke-miterlimit: 4; fill: #000000; fill-rule: ; opacity: 1;">h</tspan><tspan x="-23.32" y="8.98" style="stroke: none; stroke-width: 0; stroke-dasharray: none; stroke-linecap: butt; stroke-linejoin: miter; stroke-miterlimit: 4; fill: #000000; fill-rule: ; opacity: 1;">o</tspan><tspan x="-3.32" y="8.98" style="stroke: none; stroke-width: 0; stroke-dasharray: none; stroke-linecap: butt; stroke-linejoin: miter; stroke-miterlimit: 4; fill: #000000; fill-rule: ; opacity: 1;">T</tspan><tspan x="21.11" y="8.98" style="stroke: none; stroke-width: 0; stroke-dasharray: none; stroke-linecap: butt; stroke-linejoin: miter; stroke-miterlimit: 4; fill: #000000; fill-rule: ; opacity: 1;">u</tspan><tspan x="41.11" y="8.98" style="stroke: none; stroke-width: 0; stroke-dasharray: none; stroke-linecap: butt; stroke-linejoin: miter; stroke-miterlimit: 4; fill: #000000; fill-rule: ; opacity: 1;">n</tspan><tspan x="61.11" y="8.98" style="stroke: none; stroke-width: 0; stroke-dasharray: none; stroke-linecap: butt; stroke-linejoin: miter; stroke-miterlimit: 4; fill: #000000; fill-rule: ; opacity: 1;">e</tspan><tspan x="78.87" y="8.98" style="stroke: none; stroke-width: 0; stroke-dasharray: none; stroke-linecap: butt; stroke-linejoin: miter; stroke-miterlimit: 4; fill: #000000; fill-rule: ; opacity: 1;">s</tspan></text>
 </g>
</svg>